<svg width="30" height="31" viewBox="0 0 30 31" fill="none" xmlns="http://www.w3.org/2000/svg">
<g clip-path="url(#clip0_174_35)">
<path d="M29.6308 3.79412L26.5009 0.664219C26.3839 0.547069 26.2449 0.454132 26.092 0.390724C25.939 0.327315 25.7751 0.294678 25.6095 0.294678C25.4439 0.294678 25.2799 0.327315 25.127 0.390724C24.974 0.454132 24.835 0.547069 24.718 0.664219L15.0001 10.3821L5.28222 0.664219C5.1652 0.547069 5.02624 0.454132 4.87327 0.390724C4.72031 0.327315 4.55635 0.294678 4.39077 0.294678C4.22519 0.294678 4.06123 0.327315 3.90826 0.390724C3.7553 0.454132 3.61634 0.547069 3.49932 0.664219L0.369419 3.79412C0.252269 3.91114 0.159332 4.0501 0.0959239 4.20306C0.0325153 4.35603 -0.00012207 4.51999 -0.00012207 4.68557C-0.00012207 4.85115 0.0325153 5.01511 0.0959239 5.16807C0.159332 5.32104 0.252269 5.46 0.369419 5.57702L10.0873 15.2949L0.369419 25.0128C0.252269 25.1298 0.159332 25.2688 0.0959239 25.4218C0.0325153 25.5747 -0.00012207 25.7387 -0.00012207 25.9043C-0.00012207 26.0699 0.0325153 26.2338 0.0959239 26.3868C0.159332 26.5397 0.252269 26.6787 0.369419 26.7957L3.49932 29.9256C3.61634 30.0428 3.7553 30.1357 3.90826 30.1991C4.06123 30.2625 4.22519 30.2952 4.39077 30.2952C4.55635 30.2952 4.72031 30.2625 4.87327 30.1991C5.02624 30.1357 5.1652 30.0428 5.28222 29.9256L15.0001 20.2077L24.718 29.9256C24.835 30.0428 24.974 30.1357 25.127 30.1991C25.2799 30.2625 25.4439 30.2952 25.6095 30.2952C25.7751 30.2952 25.939 30.2625 26.092 30.1991C26.2449 30.1357 26.3839 30.0428 26.5009 29.9256L29.6308 26.7957C29.748 26.6787 29.8409 26.5397 29.9043 26.3868C29.9677 26.2338 30.0004 26.0699 30.0004 25.9043C30.0004 25.7387 29.9677 25.5747 29.9043 25.4218C29.8409 25.2688 29.748 25.1298 29.6308 25.0128L19.9129 15.2949L29.6308 5.57702C29.748 5.46 29.8409 5.32104 29.9043 5.16807C29.9677 5.01511 30.0004 4.85115 30.0004 4.68557C30.0004 4.51999 29.9677 4.35603 29.9043 4.20306C29.8409 4.0501 29.748 3.91114 29.6308 3.79412Z" fill="#2667C9"/>
</g>
<defs>
<clipPath id="clip0_174_35">
<rect width="30" height="30" fill="white" transform="translate(0 0.2948)"/>
</clipPath>
</defs>
</svg>
