<svg width="752" height="1000" viewBox="0 0 752 1000" fill="none" xmlns="http://www.w3.org/2000/svg">
<g clip-path="url(#clip0_174_39)">
<path d="M683.76 299.74H67.4C58.0609 299.744 48.8259 301.701 40.2874 305.484C31.749 309.267 24.0958 314.794 17.819 321.709C11.5422 328.624 6.7804 336.776 3.8392 345.639C0.898002 354.503 -0.15763 363.884 0.74004 373.18L61.74 939.48C63.3499 956.047 71.0687 971.421 83.3932 982.609C95.7176 993.797 111.765 999.996 128.41 1000H621.7C638.324 999.994 654.353 993.807 666.67 982.643C678.988 971.479 686.715 956.134 688.35 939.59L750.41 373.29C751.324 363.986 750.281 354.594 747.348 345.718C744.414 336.842 739.656 328.677 733.379 321.75C727.101 314.823 719.444 309.286 710.898 305.495C702.353 301.704 693.108 299.744 683.76 299.74V299.74ZM269.14 824.62C268.985 833.82 265.221 842.59 258.66 849.042C252.099 855.493 243.266 859.108 234.065 859.108C224.864 859.108 216.031 855.493 209.47 849.042C202.909 842.59 199.145 833.82 198.99 824.62L163.27 408.8C163.191 404.144 164.041 399.519 165.768 395.195C167.495 390.87 170.066 386.933 173.331 383.613C176.596 380.292 180.489 377.655 184.784 375.855C189.078 374.055 193.688 373.128 198.345 373.128C203.002 373.128 207.612 374.055 211.906 375.855C216.201 377.655 220.094 380.292 223.359 383.613C226.624 386.933 229.195 390.87 230.922 395.195C232.65 399.519 233.499 404.144 233.42 408.8L269.14 824.62ZM410.73 824.62C410.73 833.924 407.034 842.847 400.455 849.425C393.877 856.004 384.954 859.7 375.65 859.7C366.346 859.7 357.424 856.004 350.845 849.425C344.266 842.847 340.57 833.924 340.57 824.62V408.8C340.57 399.496 344.266 390.573 350.845 383.995C357.424 377.416 366.346 373.72 375.65 373.72C384.954 373.72 393.877 377.416 400.455 383.995C407.034 390.573 410.73 399.496 410.73 408.8V824.62ZM547.21 824.62C547.21 833.924 543.514 842.847 536.935 849.425C530.357 856.004 521.434 859.7 512.13 859.7C502.826 859.7 493.904 856.004 487.325 849.425C480.746 842.847 477.05 833.924 477.05 824.62L512.76 408.8C512.681 404.144 513.531 399.519 515.258 395.195C516.985 390.87 519.556 386.933 522.821 383.613C526.086 380.292 529.979 377.655 534.274 375.855C538.568 374.055 543.178 373.128 547.835 373.128C552.492 373.128 557.102 374.055 561.396 375.855C565.691 377.655 569.584 380.292 572.849 383.613C576.114 386.933 578.685 390.87 580.412 395.195C582.139 399.519 582.989 404.144 582.91 408.8L547.21 824.62Z" fill="#FF3C17"/>
<path d="M713.65 130.1H524.94V67.77C524.94 58.8678 523.186 50.0528 519.778 41.8286C516.371 33.6044 511.376 26.1322 505.08 19.8388C498.784 13.5454 491.309 8.55407 483.084 5.15008C474.858 1.74608 466.042 -0.00393413 457.14 6.64072e-06H289.31C280.203 6.54601e-06 271.186 1.79387 262.772 5.27916C254.359 8.76444 246.715 13.8729 240.276 20.3128C233.837 26.7526 228.729 34.3978 225.245 42.8117C221.761 51.2255 219.969 60.2433 219.97 69.35V130.1H37.63C27.6499 130.1 18.0786 134.065 11.0216 141.122C3.96458 148.179 0 157.75 0 167.73V208.55C-1.74567e-07 213.491 0.973402 218.384 2.86461 222.949C4.75582 227.514 7.52777 231.661 11.0222 235.155C14.5166 238.648 18.665 241.419 23.2304 243.309C27.7958 245.199 32.6888 246.171 37.63 246.17H713.63C718.571 246.171 723.464 245.199 728.03 243.309C732.595 241.419 736.743 238.648 740.238 235.155C743.732 231.661 746.504 227.514 748.395 222.949C750.287 218.384 751.26 213.491 751.26 208.55V167.73C751.26 157.753 747.298 148.185 740.246 141.129C733.193 134.072 723.627 130.105 713.65 130.1V130.1ZM285.72 130.1V79.43C285.72 71.2083 288.986 63.3233 294.8 57.5097C300.613 51.6961 308.498 48.43 316.72 48.43H432.05C440.272 48.43 448.157 51.6961 453.97 57.5097C459.784 63.3233 463.05 71.2083 463.05 79.43V130.1H285.72Z" fill="#FF3C17"/>
</g>
<defs>
<clipPath id="clip0_174_39">
<rect width="751.28" height="1000" fill="white"/>
</clipPath>
</defs>
</svg>
