<svg width="33" height="32" viewBox="0 0 33 32" fill="none" xmlns="http://www.w3.org/2000/svg">
<path d="M30.1224 31.8734C29.6679 31.8734 29.2605 31.7218 28.9473 31.4424L19.425 22.9471C17.3643 24.3175 14.9905 25.0381 12.519 25.0381C5.61639 25.0381 0 19.4183 0 12.5157C0 5.61302 5.61639 0 12.519 0C19.4217 0 25.0381 5.61639 25.0381 12.519C25.0381 14.9063 24.3646 17.2061 23.0851 19.2163L32.4256 27.55C33.2707 28.3076 33.1731 29.7554 32.2 30.8464C31.6208 31.4895 30.8464 31.8734 30.1224 31.8734ZM19.4823 21.2568C19.6607 21.2568 19.8358 21.3207 19.9772 21.4453L29.9373 30.3346C29.9844 30.375 30.0652 30.3851 30.1224 30.3851C30.348 30.3851 30.7353 30.2437 31.0888 29.8531C31.5535 29.3312 31.5737 28.7823 31.4323 28.6544L21.6103 19.8897C21.3275 19.6372 21.2803 19.2129 21.4992 18.9031C22.8393 17.0209 23.5498 14.8121 23.5498 12.5123C23.5498 6.42787 18.6001 1.48154 12.5157 1.48154C6.43124 1.48154 1.48154 6.43124 1.48154 12.5157C1.48154 18.6001 6.43124 23.5498 12.5157 23.5498C14.8693 23.5498 17.1253 22.8056 19.0378 21.4016C19.1725 21.3039 19.3274 21.2568 19.4823 21.2568ZM12.519 21.4891C7.5727 21.4891 3.5456 17.4654 3.5456 12.5157C3.5456 7.56933 7.56933 3.54223 12.519 3.54223C17.4654 3.54223 21.4925 7.56597 21.4925 12.5157C21.4925 17.4654 17.4654 21.4891 12.519 21.4891ZM12.519 5.03051C8.39092 5.03051 5.03388 8.38755 5.03388 12.5157C5.03388 16.6438 8.39092 20.0008 12.519 20.0008C16.6471 20.0008 20.0042 16.6438 20.0042 12.5157C20.0042 8.39092 16.6471 5.03051 12.519 5.03051Z" fill="#2667C9"/>
</svg>
