<svg width="30" height="27" viewBox="0 0 30 27" fill="none" xmlns="http://www.w3.org/2000/svg">
<g clip-path="url(#clip0_174_37)">
<path d="M29.586 2.13982L26.6532 0.159821C26.4466 0.0208483 26.1933 -0.0304198 25.9489 0.0172832C25.7046 0.0649862 25.4891 0.207757 25.35 0.414221L12.8064 18.9917L3.49677 12.5069C3.29239 12.3649 3.04004 12.3098 2.79506 12.3536C2.55008 12.3974 2.33248 12.5366 2.18997 12.7406L0.168574 15.6398C0.0978684 15.7414 0.0479243 15.856 0.0216095 15.9769C-0.00470536 16.0979 -0.00687266 16.2228 0.015232 16.3446C0.0373366 16.4664 0.0832779 16.5826 0.150418 16.6866C0.217559 16.7906 0.304576 16.8803 0.406475 16.9505L13.488 25.9691C13.5902 26.0396 13.7053 26.0892 13.8268 26.1149C13.9483 26.1407 14.0736 26.142 14.1956 26.119C14.3176 26.096 14.4339 26.0489 14.5376 25.9807C14.6413 25.9124 14.7305 25.8243 14.7999 25.7213L29.8389 3.44572C29.9081 3.34341 29.9566 3.22844 29.9813 3.1074C30.0061 2.98636 30.0068 2.86162 29.9833 2.74032C29.9598 2.61902 29.9126 2.50354 29.8444 2.4005C29.7763 2.29746 29.6884 2.20888 29.586 2.13982Z" fill="#17B35C"/>
</g>
<defs>
<clipPath id="clip0_174_37">
<rect width="30" height="26.1351" fill="white"/>
</clipPath>
</defs>
</svg>
