<svg width="30" height="30" viewBox="0 0 30 30" fill="none" xmlns="http://www.w3.org/2000/svg">
<g clip-path="url(#clip0_174_32)">
<path d="M14.3393 30C13.8135 30.0003 13.3008 29.7916 12.8728 29.4031L1.06002 18.6891C0.523549 18.1897 0.163381 17.4414 0.0575961 16.6063C-0.0481883 15.7713 0.108937 14.9168 0.494909 14.2282C0.880881 13.5396 1.46459 13.0723 2.1195 12.9276C2.77441 12.783 3.44773 12.9726 3.99349 13.4555L14.414 22.9064L26.1106 13.3654C26.6746 12.9148 27.3555 12.7657 28.0054 12.9507C28.6552 13.1356 29.2214 13.6396 29.5807 14.353C29.9401 15.0663 30.0635 15.9314 29.9242 16.76C29.785 17.5886 29.3942 18.3137 28.8369 18.7776L15.702 29.492C15.2953 29.8239 14.8223 30.0002 14.3393 30V30Z" fill="#6387FF"/>
<path d="M14.3395 17.143C13.8138 17.1432 13.3011 16.9344 12.8731 16.5458L1.0603 5.83217C0.514896 5.33717 0.14636 4.58674 0.0357669 3.74597C-0.0748267 2.9052 0.0815816 2.04296 0.470584 1.34893C0.859586 0.654905 1.44932 0.185944 2.11004 0.0452139C2.77077 -0.095516 3.44836 0.103513 3.99377 0.598516L14.4142 10.0495L26.1109 0.508467C26.6748 0.057844 27.3558 -0.0912095 28.0056 0.0937286C28.6555 0.278667 29.2216 0.782636 29.581 1.49601C29.9403 2.20939 30.0638 3.07447 29.9245 3.90308C29.7852 4.73169 29.3945 5.4568 28.8372 5.92068L15.7022 16.635C15.2956 16.9669 14.8226 17.1433 14.3395 17.143Z" fill="#6387FF"/>
</g>
<defs>
<clipPath id="clip0_174_32">
<rect width="30" height="30" fill="white"/>
</clipPath>
</defs>
</svg>
