<svg width="31" height="14" viewBox="0 0 31 14" fill="none" xmlns="http://www.w3.org/2000/svg">
<path d="M14.508 13.9387C13.9819 13.9389 13.4689 13.7748 13.0406 13.4693L1.2196 5.04356C0.67382 4.65429 0.30503 4.06415 0.19436 3.40297C0.0836903 2.74179 0.240206 2.06372 0.629477 1.51794C1.01875 0.97216 1.60889 0.60337 2.27007 0.4927C2.93125 0.38203 3.60931 0.538546 4.15509 0.927816L14.5827 8.36036L26.2875 0.857305C26.8518 0.502935 27.5332 0.38572 28.1835 0.531155C28.8338 0.67659 29.4004 1.07291 29.76 1.63391C30.1196 2.19491 30.2431 2.87521 30.1037 3.52682C29.9644 4.17844 29.5733 4.74867 29.0157 5.11346L15.8716 13.5389C15.4648 13.8 14.9915 13.9388 14.508 13.9387V13.9387Z" fill="#17B35C"/>
</svg>
