<svg width="31" height="20" viewBox="0 0 31 20" fill="none" xmlns="http://www.w3.org/2000/svg">
<g clip-path="url(#clip0_174_22)">
<path d="M27.6338 5.50998H2.68551C2.02749 5.49234 1.40235 5.21855 0.943169 4.74689C0.483991 4.27524 0.227051 3.64298 0.227051 2.98473C0.227051 2.32647 0.483991 1.69421 0.943169 1.22256C1.40235 0.750905 2.02749 0.477113 2.68551 0.459473H27.6338C28.2989 0.466751 28.9344 0.736088 29.4022 1.20902C29.8699 1.68194 30.1323 2.32029 30.1323 2.98548C30.1323 3.65067 29.8699 4.28902 29.4022 4.76195C28.9344 5.23487 28.2989 5.50421 27.6338 5.51149V5.50998Z" fill="#FFBE17"/>
<path d="M27.6338 19.9925H2.68551C2.02749 19.9749 1.40235 19.7011 0.943169 19.2294C0.483991 18.7578 0.227051 18.1255 0.227051 17.4673C0.227051 16.809 0.483991 16.1768 0.943169 15.7051C1.40235 15.2334 2.02749 14.9597 2.68551 14.942H27.6338C28.2918 14.9597 28.917 15.2334 29.3761 15.7051C29.8353 16.1768 30.0923 16.809 30.0923 17.4673C30.0923 18.1255 29.8353 18.7578 29.3761 19.2294C28.917 19.7011 28.2918 19.9749 27.6338 19.9925V19.9925Z" fill="#FFBE17"/>
</g>
<defs>
<clipPath id="clip0_174_22">
<rect width="30" height="19.5346" fill="white" transform="translate(0.159668 0.458008)"/>
</clipPath>
</defs>
</svg>
