<svg width="31" height="14" viewBox="0 0 31 14" fill="none" xmlns="http://www.w3.org/2000/svg">
<g clip-path="url(#clip0_174_25)">
<path d="M2.68821 13.9299C2.142 13.9304 1.61036 13.7538 1.17298 13.4266C0.735608 13.0994 0.416064 12.6393 0.262256 12.1152C0.108447 11.591 0.128659 11.0312 0.319862 10.5195C0.511065 10.0079 0.862957 9.572 1.32279 9.27721L14.4578 0.857549C14.8824 0.585266 15.3788 0.446374 15.883 0.458771C16.3872 0.471168 16.8762 0.634286 17.2869 0.927105L29.0994 9.34676C29.6359 9.73922 29.996 10.3273 30.1018 10.9835C30.2076 11.6398 30.0505 12.3112 29.6645 12.8524C29.2785 13.3936 28.6948 13.7608 28.0399 13.8744C27.385 13.9881 26.7117 13.8391 26.1659 13.4597L15.7458 6.03225L4.0491 13.5304C3.64316 13.7913 3.17076 13.93 2.68821 13.9299V13.9299Z" fill="#FF8717"/>
</g>
<defs>
<clipPath id="clip0_174_25">
<rect width="30" height="13.4722" fill="white" transform="translate(0.159668 0.458008)"/>
</clipPath>
</defs>
</svg>
