<svg width="31" height="31" viewBox="0 0 31 31" fill="none" xmlns="http://www.w3.org/2000/svg">
<g clip-path="url(#clip0_174_27)">
<path d="M3.36887 17.6848C2.82266 17.6854 2.29102 17.4607 1.85365 17.0443C1.41627 16.628 1.09673 16.0425 0.94292 15.3755C0.789111 14.7086 0.809323 13.9962 1.00053 13.3451C1.19173 12.6941 1.54362 12.1394 2.00345 11.7643L15.1384 1.05028C15.563 0.703805 16.0594 0.527066 16.5637 0.542841C17.0679 0.558617 17.5569 0.766184 17.9676 1.13879L29.7801 11.8532C30.3255 12.3482 30.694 13.0986 30.8046 13.9394C30.9152 14.7801 30.7588 15.6424 30.3698 16.3364C29.9808 17.0304 29.391 17.4994 28.7303 17.6401C28.0696 17.7808 27.392 17.5818 26.8466 17.0868L16.4264 7.63507L4.72976 17.1761C4.32392 17.5084 3.85148 17.685 3.36887 17.6848V17.6848Z" fill="#FF3C17"/>
<path d="M3.36887 30.542C2.82266 30.5425 2.29102 30.3178 1.85365 29.9015C1.41627 29.4851 1.09673 28.8996 0.94292 28.2327C0.789111 27.5657 0.809323 26.8533 1.00053 26.2023C1.19173 25.5512 1.54362 24.9965 2.00345 24.6214L15.1384 13.907C15.5631 13.5607 16.0594 13.3841 16.5636 13.3999C17.0679 13.4157 17.5568 13.6231 17.9676 13.9955L29.7801 24.7099C30.3255 25.2049 30.694 25.9553 30.8046 26.7961C30.9152 27.6369 30.7588 28.4991 30.3698 29.1931C29.9808 29.8872 29.391 30.3561 28.7303 30.4969C28.0696 30.6376 27.392 30.4386 26.8466 29.9436L16.4264 20.4922L4.72976 30.0332C4.32392 30.3655 3.85148 30.5421 3.36887 30.542V30.542Z" fill="#FF3C17"/>
</g>
<defs>
<clipPath id="clip0_174_27">
<rect width="30" height="30" fill="white" transform="translate(0.840332 0.541992)"/>
</clipPath>
</defs>
</svg>
