<svg width="50" height="50" xmlns="http://www.w3.org/2000/svg">

 <g>
  <title>Layer 1</title>
  <g id="surface128915984">
   <path id="svg_1" fill="#2667c9" fill-rule="nonzero" d="m17.78906,46.83594c0.71485,-0.30469 1.21094,-1.01172 1.21094,-1.83594l0,-5.39844c0,-0.19922 0.01563,-0.40234 0.03906,-0.61328c-0.01172,0.00391 -0.02343,0.00781 -0.03906,0.01172c0,0 -3,0 -3.60156,0c-1.5,0 -2.79688,-0.60156 -3.39844,-1.80078c-0.69922,-1.30078 -1,-3.5 -2.80078,-4.69922c-0.30078,-0.19922 -0.09766,-0.5 0.5,-0.5c0.60156,0.10156 1.90234,0.89844 2.69922,2c0.90234,1.10156 1.80078,2 3.40234,2c2.48438,0 3.82031,-0.125 4.6211,-0.55469c0.93359,-1.39062 2.22656,-2.44531 3.57812,-2.44531l0,-0.02344c-5.66797,-0.18359 -9.28906,-2.0664 -10.97656,-4.97656c-3.66406,0.04297 -6.85547,0.40625 -8.67578,0.70703c-0.0586,-0.32812 -0.10938,-0.65625 -0.15235,-0.98828c1.79688,-0.29297 4.84375,-0.64453 8.34766,-0.71094c-0.11328,-0.27734 -0.21094,-0.5625 -0.29297,-0.85156c-3.51172,-0.17578 -6.53906,-0.03906 -8.1875,0.09766c-0.01953,-0.33203 -0.04687,-0.66407 -0.05078,-1c1.64844,-0.13282 4.59766,-0.26953 8.01953,-0.10938c-0.07812,-0.5 -0.12891,-1.01172 -0.12891,-1.54297c0,-1.69922 0.59766,-3.5 1.69922,-5c-0.5,-1.69922 -1.19922,-5.30078 0.19922,-6.60156c2.69922,0 4.60156,1.30078 5.5,2.10156c1.69922,-0.70312 3.59766,-1.10156 5.69922,-1.10156c2.10156,0 4,0.39844 5.60156,1.10156c0.89844,-0.80078 2.79688,-2.10156 5.5,-2.10156c1.5,1.39844 0.69922,5 0.19922,6.60156c1.09766,1.5 1.69922,3.19922 1.59766,5c0,0.48438 -0.04297,0.94922 -0.10938,1.40625c3.5,-0.17187 6.52735,-0.03125 8.20313,0.10157c0,0.33984 -0.03125,0.66796 -0.05078,1c-1.66797,-0.13672 -4.77344,-0.28125 -8.35547,-0.08985c-0.08985,0.33594 -0.19922,0.66406 -0.32813,0.98047c3.54688,0.04688 6.66797,0.39063 8.55078,0.69141c-0.04296,0.33203 -0.09375,0.66015 -0.15234,0.98437c-1.91406,-0.30469 -5.17187,-0.66406 -8.87891,-0.67969c-1.66406,2.875 -5.21875,4.75391 -10.77734,4.97266l0,0.03125c2.60156,0 5,3.89844 5,6.60156l0,5.39844c0,0.82422 0.49609,1.53125 1.21094,1.83594c9.16015,-3.03125 15.78906,-11.67188 15.78906,-21.83594c0,-12.68359 -10.31641,-23 -23,-23c-12.68359,0 -23,10.31641 -23,23c0,10.16406 6.62891,18.80469 15.78906,21.83594zm0,0"/>
  </g>
 </g>
</svg>